<svg width="32" height="32" viewBox="0 0 32 32" fill="none" xmlns="http://www.w3.org/2000/svg">
<path d="M31.9304 9.49565L28.2087 21.2174C27.9304 22.0522 27.2 22.6087 26.3304 22.6087H11.9652C11.1304 22.6087 10.3304 22.0869 10.0522 21.3217L4.55652 6.60869H1.3913C0.626087 6.60869 0 5.9826 0 5.21738C0 4.45217 0.626087 3.82608 1.3913 3.82608H5.53043C6.12174 3.82608 6.64348 4.20869 6.85217 4.76521L12.5217 19.8261H25.7391L28.6957 10.4348H12.313C11.5478 10.4348 10.9217 9.80869 10.9217 9.04347C10.9217 8.27825 11.5478 7.65217 12.313 7.65217H30.6087C31.0609 7.65217 31.4783 7.89565 31.7217 8.24347C32 8.5913 32.0696 9.07825 31.9304 9.49565ZM12.6609 24.4522C12.0696 24.4522 11.4783 24.6956 11.0609 25.113C10.6435 25.5304 10.4 26.1217 10.4 26.713C10.4 27.3043 10.6435 27.8956 11.0609 28.313C11.4783 28.7304 12.0696 28.9739 12.6609 28.9739C13.2522 28.9739 13.8435 28.7304 14.2609 28.313C14.6783 27.8956 14.9217 27.3043 14.9217 26.713C14.9217 26.1217 14.6783 25.5304 14.2609 25.113C13.8435 24.6956 13.2522 24.4522 12.6609 24.4522ZM25.1478 24.4522C24.5565 24.4522 23.9652 24.6956 23.5478 25.113C23.1304 25.5304 22.887 26.1217 22.887 26.713C22.887 27.3043 23.1304 27.8956 23.5478 28.313C23.9652 28.7304 24.5565 28.9739 25.1478 28.9739C25.7391 28.9739 26.3304 28.7304 26.7478 28.313C27.1652 27.8956 27.4087 27.3043 27.4087 26.713C27.4087 26.1217 27.1652 25.5304 26.7478 25.113C26.3304 24.6956 25.7391 24.4522 25.1478 24.4522Z" fill="#A99999"/>
</svg>
